<mxfile host="app.diagrams.net" agent="Mozilla/5.0 (Windows NT 10.0; Win64; x64) AppleWebKit/537.36 (KHTML, like Gecko) Chrome/126.0.0.0 Safari/537.36" version="24.7.6">
  <diagram name="PÃ¡gina-1" id="w5MbSfDA8qFFmkBjW4jh">
    <mxGraphModel dx="4871" dy="1307" grid="1" gridSize="10" guides="1" tooltips="1" connect="1" arrows="1" fold="1" page="1" pageScale="1" pageWidth="827" pageHeight="1169" math="0" shadow="0">
      <root>
        <mxCell id="0" />
        <mxCell id="1" parent="0" />
        <mxCell id="_Y8EHeN4pH5Q-2JvEznd-30" value="partner" style="swimlane;fontStyle=0;childLayout=stackLayout;horizontal=1;startSize=30;horizontalStack=0;resizeParent=1;resizeParentMax=0;resizeLast=0;collapsible=1;marginBottom=0;whiteSpace=wrap;html=1;" parent="1" vertex="1">
          <mxGeometry x="-1160" y="190" width="140" height="210" as="geometry">
            <mxRectangle x="-320" y="280" width="80" height="30" as="alternateBounds" />
          </mxGeometry>
        </mxCell>
        <mxCell id="_Y8EHeN4pH5Q-2JvEznd-31" value="id" style="text;strokeColor=none;fillColor=none;align=left;verticalAlign=middle;spacingLeft=4;spacingRight=4;overflow=hidden;points=[[0,0.5],[1,0.5]];portConstraint=eastwest;rotatable=0;whiteSpace=wrap;html=1;" parent="_Y8EHeN4pH5Q-2JvEznd-30" vertex="1">
          <mxGeometry y="30" width="140" height="30" as="geometry" />
        </mxCell>
        <mxCell id="_Y8EHeN4pH5Q-2JvEznd-32" value="tradingName" style="text;strokeColor=none;fillColor=none;align=left;verticalAlign=middle;spacingLeft=4;spacingRight=4;overflow=hidden;points=[[0,0.5],[1,0.5]];portConstraint=eastwest;rotatable=0;whiteSpace=wrap;html=1;" parent="_Y8EHeN4pH5Q-2JvEznd-30" vertex="1">
          <mxGeometry y="60" width="140" height="30" as="geometry" />
        </mxCell>
        <mxCell id="_Y8EHeN4pH5Q-2JvEznd-33" value="ownerName" style="text;strokeColor=none;fillColor=none;align=left;verticalAlign=middle;spacingLeft=4;spacingRight=4;overflow=hidden;points=[[0,0.5],[1,0.5]];portConstraint=eastwest;rotatable=0;whiteSpace=wrap;html=1;" parent="_Y8EHeN4pH5Q-2JvEznd-30" vertex="1">
          <mxGeometry y="90" width="140" height="30" as="geometry" />
        </mxCell>
        <mxCell id="_Y8EHeN4pH5Q-2JvEznd-35" value="document" style="text;strokeColor=none;fillColor=none;align=left;verticalAlign=middle;spacingLeft=4;spacingRight=4;overflow=hidden;points=[[0,0.5],[1,0.5]];portConstraint=eastwest;rotatable=0;whiteSpace=wrap;html=1;" parent="_Y8EHeN4pH5Q-2JvEznd-30" vertex="1">
          <mxGeometry y="120" width="140" height="30" as="geometry" />
        </mxCell>
        <mxCell id="_Y8EHeN4pH5Q-2JvEznd-37" value="coverageArea&lt;span style=&quot;white-space: pre;&quot;&gt;&#x9;&lt;/span&gt;&lt;span style=&quot;white-space: pre;&quot;&gt;&#x9;&lt;/span&gt;FK" style="text;strokeColor=none;fillColor=none;align=left;verticalAlign=middle;spacingLeft=4;spacingRight=4;overflow=hidden;points=[[0,0.5],[1,0.5]];portConstraint=eastwest;rotatable=0;whiteSpace=wrap;html=1;" parent="_Y8EHeN4pH5Q-2JvEznd-30" vertex="1">
          <mxGeometry y="150" width="140" height="30" as="geometry" />
        </mxCell>
        <mxCell id="_Y8EHeN4pH5Q-2JvEznd-36" value="address&lt;span style=&quot;white-space: pre;&quot;&gt;&#x9;&lt;/span&gt;&lt;span style=&quot;white-space: pre;&quot;&gt;&#x9;&lt;/span&gt;&lt;span style=&quot;white-space: pre;&quot;&gt;&#x9;&lt;/span&gt;FK" style="text;strokeColor=none;fillColor=none;align=left;verticalAlign=middle;spacingLeft=4;spacingRight=4;overflow=hidden;points=[[0,0.5],[1,0.5]];portConstraint=eastwest;rotatable=0;whiteSpace=wrap;html=1;" parent="_Y8EHeN4pH5Q-2JvEznd-30" vertex="1">
          <mxGeometry y="180" width="140" height="30" as="geometry" />
        </mxCell>
        <mxCell id="_Y8EHeN4pH5Q-2JvEznd-52" style="edgeStyle=orthogonalEdgeStyle;rounded=0;orthogonalLoop=1;jettySize=auto;html=1;strokeColor=default;endArrow=none;endFill=0;" parent="1" source="_Y8EHeN4pH5Q-2JvEznd-38" target="_Y8EHeN4pH5Q-2JvEznd-30" edge="1">
          <mxGeometry relative="1" as="geometry" />
        </mxCell>
        <mxCell id="_Y8EHeN4pH5Q-2JvEznd-38" value="address" style="swimlane;fontStyle=0;childLayout=stackLayout;horizontal=1;startSize=30;horizontalStack=0;resizeParent=1;resizeParentMax=0;resizeLast=0;collapsible=1;marginBottom=0;whiteSpace=wrap;html=1;" parent="1" vertex="1">
          <mxGeometry x="-900" y="190" width="140" height="120" as="geometry">
            <mxRectangle x="-320" y="280" width="80" height="30" as="alternateBounds" />
          </mxGeometry>
        </mxCell>
        <mxCell id="_Y8EHeN4pH5Q-2JvEznd-39" value="id" style="text;strokeColor=none;fillColor=none;align=left;verticalAlign=middle;spacingLeft=4;spacingRight=4;overflow=hidden;points=[[0,0.5],[1,0.5]];portConstraint=eastwest;rotatable=0;whiteSpace=wrap;html=1;" parent="_Y8EHeN4pH5Q-2JvEznd-38" vertex="1">
          <mxGeometry y="30" width="140" height="30" as="geometry" />
        </mxCell>
        <mxCell id="_Y8EHeN4pH5Q-2JvEznd-40" value="type" style="text;strokeColor=none;fillColor=none;align=left;verticalAlign=middle;spacingLeft=4;spacingRight=4;overflow=hidden;points=[[0,0.5],[1,0.5]];portConstraint=eastwest;rotatable=0;whiteSpace=wrap;html=1;" parent="_Y8EHeN4pH5Q-2JvEznd-38" vertex="1">
          <mxGeometry y="60" width="140" height="30" as="geometry" />
        </mxCell>
        <mxCell id="_Y8EHeN4pH5Q-2JvEznd-41" value="coordinates" style="text;strokeColor=none;fillColor=none;align=left;verticalAlign=middle;spacingLeft=4;spacingRight=4;overflow=hidden;points=[[0,0.5],[1,0.5]];portConstraint=eastwest;rotatable=0;whiteSpace=wrap;html=1;" parent="_Y8EHeN4pH5Q-2JvEznd-38" vertex="1">
          <mxGeometry y="90" width="140" height="30" as="geometry" />
        </mxCell>
        <mxCell id="_Y8EHeN4pH5Q-2JvEznd-53" style="edgeStyle=orthogonalEdgeStyle;rounded=0;orthogonalLoop=1;jettySize=auto;html=1;endArrow=none;endFill=0;" parent="1" source="_Y8EHeN4pH5Q-2JvEznd-45" target="_Y8EHeN4pH5Q-2JvEznd-30" edge="1">
          <mxGeometry relative="1" as="geometry" />
        </mxCell>
        <mxCell id="_Y8EHeN4pH5Q-2JvEznd-45" value="coverage_area" style="swimlane;fontStyle=0;childLayout=stackLayout;horizontal=1;startSize=30;horizontalStack=0;resizeParent=1;resizeParentMax=0;resizeLast=0;collapsible=1;marginBottom=0;whiteSpace=wrap;html=1;" parent="1" vertex="1">
          <mxGeometry x="-1430" y="190" width="140" height="120" as="geometry">
            <mxRectangle x="-320" y="280" width="80" height="30" as="alternateBounds" />
          </mxGeometry>
        </mxCell>
        <mxCell id="_Y8EHeN4pH5Q-2JvEznd-46" value="id" style="text;strokeColor=none;fillColor=none;align=left;verticalAlign=middle;spacingLeft=4;spacingRight=4;overflow=hidden;points=[[0,0.5],[1,0.5]];portConstraint=eastwest;rotatable=0;whiteSpace=wrap;html=1;" parent="_Y8EHeN4pH5Q-2JvEznd-45" vertex="1">
          <mxGeometry y="30" width="140" height="30" as="geometry" />
        </mxCell>
        <mxCell id="_Y8EHeN4pH5Q-2JvEznd-47" value="type" style="text;strokeColor=none;fillColor=none;align=left;verticalAlign=middle;spacingLeft=4;spacingRight=4;overflow=hidden;points=[[0,0.5],[1,0.5]];portConstraint=eastwest;rotatable=0;whiteSpace=wrap;html=1;" parent="_Y8EHeN4pH5Q-2JvEznd-45" vertex="1">
          <mxGeometry y="60" width="140" height="30" as="geometry" />
        </mxCell>
        <mxCell id="_Y8EHeN4pH5Q-2JvEznd-48" value="coordinates" style="text;strokeColor=none;fillColor=none;align=left;verticalAlign=middle;spacingLeft=4;spacingRight=4;overflow=hidden;points=[[0,0.5],[1,0.5]];portConstraint=eastwest;rotatable=0;whiteSpace=wrap;html=1;" parent="_Y8EHeN4pH5Q-2JvEznd-45" vertex="1">
          <mxGeometry y="90" width="140" height="30" as="geometry" />
        </mxCell>
        <mxCell id="_Y8EHeN4pH5Q-2JvEznd-58" value="DATABASE" style="text;html=1;align=center;verticalAlign=middle;whiteSpace=wrap;rounded=0;fontSize=30;" parent="1" vertex="1">
          <mxGeometry x="-1175" y="70" width="170" height="30" as="geometry" />
        </mxCell>
        <mxCell id="_Y8EHeN4pH5Q-2JvEznd-60" value="CLASS DIAGRAM" style="text;html=1;align=center;verticalAlign=middle;whiteSpace=wrap;rounded=0;fontSize=30;" parent="1" vertex="1">
          <mxGeometry x="-1185" y="570" width="170" height="30" as="geometry" />
        </mxCell>
        <mxCell id="X8rZoJl7wQgGBzUAeYB1-33" style="edgeStyle=orthogonalEdgeStyle;rounded=0;orthogonalLoop=1;jettySize=auto;html=1;entryX=0.5;entryY=0;entryDx=0;entryDy=0;" parent="1" source="_Y8EHeN4pH5Q-2JvEznd-78" target="X8rZoJl7wQgGBzUAeYB1-14" edge="1">
          <mxGeometry relative="1" as="geometry" />
        </mxCell>
        <mxCell id="_Y8EHeN4pH5Q-2JvEznd-78" value="Partner" style="swimlane;fontStyle=0;childLayout=stackLayout;horizontal=1;startSize=26;fillColor=none;horizontalStack=0;resizeParent=1;resizeParentMax=0;resizeLast=0;collapsible=1;marginBottom=0;whiteSpace=wrap;html=1;" parent="1" vertex="1">
          <mxGeometry x="-1200" y="680" width="200" height="182" as="geometry" />
        </mxCell>
        <mxCell id="_Y8EHeN4pH5Q-2JvEznd-68" value="- id: string" style="text;strokeColor=none;fillColor=none;align=left;verticalAlign=top;spacingLeft=4;spacingRight=4;overflow=hidden;rotatable=0;points=[[0,0.5],[1,0.5]];portConstraint=eastwest;whiteSpace=wrap;html=1;" parent="_Y8EHeN4pH5Q-2JvEznd-78" vertex="1">
          <mxGeometry y="26" width="200" height="26" as="geometry" />
        </mxCell>
        <mxCell id="_Y8EHeN4pH5Q-2JvEznd-75" value="- tradingName: string" style="text;strokeColor=none;fillColor=none;align=left;verticalAlign=top;spacingLeft=4;spacingRight=4;overflow=hidden;rotatable=0;points=[[0,0.5],[1,0.5]];portConstraint=eastwest;whiteSpace=wrap;html=1;" parent="_Y8EHeN4pH5Q-2JvEznd-78" vertex="1">
          <mxGeometry y="52" width="200" height="26" as="geometry" />
        </mxCell>
        <mxCell id="_Y8EHeN4pH5Q-2JvEznd-76" value="- ownerName: string" style="text;strokeColor=none;fillColor=none;align=left;verticalAlign=top;spacingLeft=4;spacingRight=4;overflow=hidden;rotatable=0;points=[[0,0.5],[1,0.5]];portConstraint=eastwest;whiteSpace=wrap;html=1;" parent="_Y8EHeN4pH5Q-2JvEznd-78" vertex="1">
          <mxGeometry y="78" width="200" height="26" as="geometry" />
        </mxCell>
        <mxCell id="_Y8EHeN4pH5Q-2JvEznd-77" value="- document: string" style="text;strokeColor=none;fillColor=none;align=left;verticalAlign=top;spacingLeft=4;spacingRight=4;overflow=hidden;rotatable=0;points=[[0,0.5],[1,0.5]];portConstraint=eastwest;whiteSpace=wrap;html=1;" parent="_Y8EHeN4pH5Q-2JvEznd-78" vertex="1">
          <mxGeometry y="104" width="200" height="26" as="geometry" />
        </mxCell>
        <mxCell id="_Y8EHeN4pH5Q-2JvEznd-69" value="- coverageArea:&amp;nbsp;&lt;span style=&quot;text-align: center;&quot;&gt;GeoArea&lt;/span&gt;" style="text;strokeColor=none;fillColor=none;align=left;verticalAlign=top;spacingLeft=4;spacingRight=4;overflow=hidden;rotatable=0;points=[[0,0.5],[1,0.5]];portConstraint=eastwest;whiteSpace=wrap;html=1;" parent="_Y8EHeN4pH5Q-2JvEznd-78" vertex="1">
          <mxGeometry y="130" width="200" height="26" as="geometry" />
        </mxCell>
        <mxCell id="_Y8EHeN4pH5Q-2JvEznd-82" value="- address:&amp;nbsp;&lt;span style=&quot;text-align: center;&quot;&gt;GeoArea&lt;/span&gt;" style="text;strokeColor=none;fillColor=none;align=left;verticalAlign=top;spacingLeft=4;spacingRight=4;overflow=hidden;rotatable=0;points=[[0,0.5],[1,0.5]];portConstraint=eastwest;whiteSpace=wrap;html=1;" parent="_Y8EHeN4pH5Q-2JvEznd-78" vertex="1">
          <mxGeometry y="156" width="200" height="26" as="geometry" />
        </mxCell>
        <mxCell id="X8rZoJl7wQgGBzUAeYB1-13" value="" style="shape=image;verticalLabelPosition=bottom;labelBackgroundColor=default;verticalAlign=top;aspect=fixed;imageAspect=0;image=data:image/png,iVBORw0KGgoAAAANSUhEUgAAAOEAAADhCAMAAAAJbSJIAAABg1BMVEX///9Q48K46YbITD31piMAAAC564VO5cNJ5sPJSjtS6cfJSTrLTT5T68lL5MRJ58S+7ILQTz//riX7qiRV8c686YPKQzewxYRO28L/9/m574bKQDZ6yqtsz7P/sSVO3r695ILFQz/BUUk8q5JHyawYRTuvyobd6OWT1sbz8/Nf48VL1LUpdGPe4uFH4MZd1buQyp6hzZOy14iUyJyw1Iq434Wgx5SNxaCwuYCzm3Sw3Yy0hGvFSEKePDC7RznAVUq+blfkojzZn0nwqywQLygxjHix5o6zkXG7YVi4al7EgVTFjFnH/ZG+29TF3dc2mYN71sGbxHGvqHu1fmdlJh/Sm09xTRAjLBmN1cQsfWsTNS1Bup8eVklSHxmp3M9GWTNed0QkZ1iDMiikPjJ2LSQ/GBO2fBpcPg0mGQXalB+jbxc5JggKHhl8nVptik+IrGMuEQ4dCwnpWUemcRgIFhNackFDVjEyQCUcJBSCWBNIMAodEwT/vijimSDHiR1UOQwkDQvL9CvsAAAgAElEQVR4nOWdi0MSyxrAL8qwuLIosHqSlFVZSgWjTOrUEeomlJ2jIkUoDx+goICvEjMssT/9frOwPGdgQexx7nc6sCwI+9vvObOzM//5z63LyPT0/dnVlZWtra2pqY2Njakp2FpZWZ29Pz09cvs/f5syMj17f2VqY21mRqVnGK0kjFbeYPSqmZm1jamV+7O/JejI7OoWsKm0AwMAoyILYMPbKuDcWp39nShHZlemnAIcu5ZC1kAKoIJzauW3oATdTTkZ0JtCuFp9Oqd+cV2C8tZm9O3TVSlTP7P2y6oS4wnaG+DJkFrhl4QcWV0TBpT6XSvRDghrq78U48jslnOgHDHtpWfWLtYplGXrWXiKyhlmwLn1yyhyenVDVZUQ7F6MyAAg8hWJmNIDZ41y8kuJQsX7RBm6ARXe3lid/tlwICMra/qB6iOzH9pVLGPnOKuNV7GCwAl20B1nFzg+7uNUnFD6HGe3c3wuypbYOLv0mRrIAf3ays/W4/QKmGftubcfqnwRL4oLXuQLx5DoR5FDkbdFcmERIdEWQ1Ybw9usfByhsBV5RSRwPocQidi4WA75ahHBI50rP1OPBL4SIcMhezTGhyOcyqHi4377oZ6P82E/H3HwUUwYtUZ4wfbAK7JI4H1hIWflw2GeO6x3XRXzExmBj5QbMKGD54HQxjt8PBuNxw59fCwSF/FLbxQIVUAI2xBoDqNMkTAi8DZbPJ6zNgQjyB8/h3Fkdo2c++oIxUOr4PAxAlirEC4RsnwEE7JWzisySAXaw4QRvyha7aSvZLRrPz6uzm402meJMFdFGOajh/Yo8kVzdjsQxkFpnIiiVhQVkd2a471+FlmjKCx4Bc5vs8PHyN/KDGzM/lC+6SmBmt2FsMpqZVmHXfTxeMNvc0TjKp8tZuXFmAjpgfPHHP4ob42B3Vrj4K5xv1UICyr4ZExsNNKSaIWpH2eqI6uEAFMRTsrsHMNIGwzLcBxbegn/8AdYjmXgEd6V/rH4/fIf0gRCzo+qc6anqA2+2xWG+SFqHFkVBlofzC3JgHD7avxpCizK7atx1tlh+4Fh9LXS6YnSOm8zqI6sqNoFZCBC6PUP7jidY2OjWJ5Kj2NjTuedB3o9RKx2SbWq26tVpzfa9EAtRhsbffhofs41Pj40WJGh8XHX3Pyjh6NjGLTN0zawcUuW2p6FMnrBOQZsrvGhoSGNRtNTL7AP3hl3AeeYU9C3o8pbstRVepIn4N0BuufjmK0BrR4UMJ8D5Z02ILXCatf5RrYU98Aweufok7nxwVZsNZyD43NPRp2KIRntVpedcUShCzJawHvkGjK3g1dWpusRQCo8kwMbXUWcXlMEiI3z8RyYZtt4JcihobnHSs11YK2L8WZWGSBWX8U4NWZzSyckQA6OY0UqQ+xavJl1KgAE73s6V+17R8fHRwFzUxoa5NxTRR450K2QOjvTOogy+rEnrprY4srtHO/kTkCPZqxO2GOWnBNvQqKA/YHz5eI7+CPS/gqj68mYAkbtTFcQZ2da/hTo76GrLna61nvMy8fbmkDgZDlwfAIKOzoOaDSuo6MevO/YpdlZD5hdx9LLI5e0UcU45HqoQI9MNxBba5BhnI/r+STCZfP5jgutnwS+HH0+N5+fH+UCPevHO1/MR+h8Z71nez3gyh1vXyyfo8+Bi6OdizpbdT12tixeu5D7FQDeGZ0bbPQmVw4h9Lkn8KVneR00iFwXxz2gqZ2ens8nR5+XNReBwPby9pGmB7l2dpYDuYA5UP8Vg3Ojd1oi3lSLLU2U0Y/OE7ODa92FPSxw0WNGnz9vb7tc2+sXrvOL7c/bgSPwwIvAyfbyxWd46To/MptPPn/ZaYw5Q/OjrUz1hobashTVOx+Pk0OiRNjTA4TLXwLL5h0XYOzsHO0sLx+5yoSfT5Y1x5rzo2Vw1p5cgFC8jj9ukjok+BsZastEDwokGGjJSmVCzcmXo+1tzefzo4uTHnS8gzTHEmEAnQTQ8fnF8vbxMmwcf3GRvmcQ1Ej59VKnzg1S/0gFkOjyzJ0nTcqXQPnJDLEUsgPEUsgXOJa6Ang/xNBl1/GJpifggl3Hx5T8qBl6QvZGPorifBGxwwKuqhZlRUJPrX6MqkDpyCpPxcaTxlzcLv0vPUn7pHebVLKD82ONauSEuFe+zNFpjbpVAfTlfHydGpkHT12d1p/tisb19EGdGjmrNx6NyNexBrY6AVwtBxlW9PL2iFeo/hFtUwvtOiJYanXMY4QYsvLxMMfwRWfUdtBenK0AcdZ4FFn9jqorXy0stPtSZ6l2B8sLSOBFfAFSQm47oE5X5QmejUdEPuwvE0IS7MBCNZKYi0/t/7WrOjUyrIoLhzkf8ss25WwzoI5slAEZIeyz8/54pNLj3i4g1NcQSF4/n5ufvwcyP/f8dWlfm4jVniggq81m58tu02a0WakkQvYw7EB81C97NY4xyl0Qg7ye//Pdm7dLLxYWJkqy8GLp7Zt3f86/bgdTM1Qdb0B/4Ir4UkhJBlbaAZwt46k4f5iPR732iolCjFF4TNAimvvzzdvJibt3h/v7+/r6eosCW/39w3fvTky+ffPnXE3DqalUZ0bOH2PFyCGyVg6sDVecXpNtNMpwfoc1zsfLTqgYEHT3x7OXkxPA1ksT4ATKZ3+8Vgg59Kgq+XOi1xu1R8qZug1XHJmSAYWcIHCHyM4i+cIeACoJotCmvfdsaWJ4uI9KJ0vf8PDE0rN7zVJ+RQartMg7fPZDPmZl5UytnVLqiqtVYRTSBB9DZVtQBqgxP3+3NHGXrrsGXd6dWHr3XAljFSIX9vF+m9cuiPLpV5oVpyuZkLX6RG+cLV7AVAoI6vtroQ08GXLhL1BkO4hCJB6NiSp0WD7/giI7HZmqalDgERMOb1ROFA9a+6C554/3CwqMs1H6hhfe/9GacejJA/n82/1WXrRFHOWUMaDITqtslI0iB8/iq/HFU6R/2kqDGvO99xMd8RUZJ97fa2mrQ0/LqZ/jw8jP+8oaUGSnNcUMb/fG7Jx8dV0/2kqD5rm/7g53iFeU4bt/zbVS41A59bNhG1RuKFrOGEriacVGGSEes/M+ZC0DUprzZb7XzybLfAad/NAu4+Sz180ZNeMyIsQJ3o5EvjJGZWCqFeBs5YolH/OFIZJGo8U92rHmpZpGc+/tcDm+GBK7ul4dfmhb+off3mteuGpcYyVDY1SCzW+NofJgMUbVKu9vVLWZbLwvfBjx8aUwOt/0V0GBE1UGakgmDNKDzmDAL6VHaUMnv5I2dVU7KmqcaKFGzbwcULk48vpsMa7iiRvNAVer6lEhB+1Cf1iQw2jTKGO+t3S3OsCUCd3BPcBwBxNYm7revaDboIN9nuKmwbMX9Oh0ic1EjbL77i7da4o4KAdUVhR5X5y3R8vHPdA02EyvVeo+R1SI2nibWPRi/dNmUUbT826hNgHKhJ7T3b2kYW/Tndwz4L1BN9pNJHf3Ng2bid1Tt+c0kfjYm9jc3QzWaLG3f+Ed7bqGJFCFlxA5v9dvi4TLB8407ZhaqbZRkbPbIvHSnzV1Qs3rNxN1GV4m3P242+vxfN/t3UXgl7vIYHDvejyeRFKX3PN4QI+9umQikfT0euo8tn/izetmP+kaKzGx3khYFMRK00DbpJEx7ayoECcaVpAzTVMnNL9+e7c+XICKMKHb4D5Fex6UPE0GYac7CTsNbpQMJnW6IPru2fyePN10GxIIJQz1X3H3bTNnBFcsHarAQW2JkE/O+0yTjFFRIcfy9lysPChZ38wJzfOTjTnQkEiCk330JNyfDGj3tPdTL1ipzgM6BDv1fHIndZuGT4lgIvjp055nz/MJ3mn4juHJ+SaIg0/kxA+Ficjz3vKoP7oSZRVyDBs99Po5hzxit2mqN/9BAAQB5aA9w+7H4OamIfE9+B0ryRBMbp4agqfB5MfdYDJ46u5Nbm4mexMf9yQ3bUT8owni0GiJENp2PDyUB9/SlVhq2HN+uwqJUVucj9pLf9HERs1/ThKLbF2vW0qJoEV4sZvwSAS6XTd+x63b9Rjw+3i7VwdvkxNn/+SfdETNvKwRX5jnrEho2dwfKf4BA2VMGMpRzisXQ/rHdBs1/1EfYyqMUkVTzIc6ubrRSaWOAT8bDKXtqrcbECeaaHHwsVy9eWMRJKriQlmJ5AK8pEIhzgs2JPC8o9SuZ0bHm2iQCkiUvr5KX4ayP5hoosVx2U5Zq8hbIdjIrTyyEstdFz4xyvsP/f5DoWUcpZkogax/YmFhcvIFlsnJhYWJfoWkzQy1Ek85MWYT7XF7OC45o5aYE1flTMGLh3FO9OaEUpuJHmbM8y8UAOr6+iYml17+/c+HV/8tyqsP//z9cmlyob9PQdna/4IeUcvBhov5WBbairFSrw1DKGyqr8OoHCjKl1Ih45yjqVDzmhxFawTatUt/f3i1aDEaTVjU0qPRaFl89eHvJSVt5eFJaurXzMkZnONYLnwY5eUrboTe02IHIlNsC4Iaw3yrMKN5/bYVYF8/4L1axGCNAnsXXwFkSzMYfktFrAQbVTQXicT95aTY2MTYwl7IipFiHSpES00uxkm8binJm4ZKpo6vb/Llh0UiXYVy8cPLyVYuefcN9Rhc5TIsHhW8fke81MmkbbgaVUoVAhRrHIPNWs4UD2kqNL+baH5c/ZNYfU3wSpCgyFbxauIdzRUHH5bb+7wvxpfv9mtMGHKziY8eRuy831uyUXrFbb7X3Lz6F16+MrbmkxiNr162+jJaY6pSgatUKFp1M0NDI6rcbGJZSPheuVuAWpBqXi81O6a+iZcf1Mr4JEb1h5cTzUy1f4nmilCelo5cCKuqhFmrizOVPlIG1OiX63QnTYWaZ82cEAxUgX3W2mpzU737jHYgLqd84KoawroriivVgy7KN0GqqN2H5nvNnHB46YOxLT4sxg9LzULzBM1OB5+Sx2rU1jUja8RxM/Rc2CxR9E28b1OBshrfN7FUSBkUJc45GdLBa2tGaMwKpM/QW03mZ3TA/sl/2vDAGkT1P00sdfgZRYlDlAE3NWa6QlbhnUeUIS5z9CPpf/GhMz6J8QO9DOyfpBiU+RF5vE11Q3iEPPaJGaM0Ksx/UVXYP3kDQIxIP3fDf1GUOD5GJKweSEQZn0cr2Mz3qHG0f/LVTQAB8RUd8S4l2FSVbjVSNaZvlQiocj6nxJn3NBXeyERlLVINdfg9+XA0z53E469qYEyR3ZASZ6BZTzmEvpuZqIw4SYuotAZ/uRFVK9ryNYwRcrjVU+IMXYUT/9wcEBD/oZ1BqhIfEc20UpvOUoyUXM9o7i1QzvHw+y7wYaGdwr6Fe+RDcpHNVCs74go5ktKMlBZI+5c6SvSNYlqk1by0cEox03JZQ3ZDipFqnlPcpO+mYbQK8RX1N8jBj2KmsiNS3PAOOcGa31FSxcQ/7deiNDHSXPEuuaGombtDQpAdkVyyUdM9xYL6Xy52DVCtXnxJ+ZUl8kFRkn6pcFsluiGlca+hNSoWupAoKmL6sECxFHKsqTT1a6TUDN4iEj54RLYHSruw/yXtWE3kfqhWQlEipZ1ofvSABFEcO1w10LJanHNEc6A07elh5gqLTCt5qgV2tlYiJdhAY594XHPEfFEckll13bf6PbIb0uqZvpfkMGMqoGw2e5CS3jWl85ZM3pJXp5FRXWphUdVr/JscTil1zfgYSU/F68HTMyR6/UNiNqQ0DKkqNBUu5QB0BS++Wq6uFlFanQYyeK02XVG1SVMipZk4RHZEqfi+T3oH3JCc718SCamB1FS4tlgsRlPqMov21VmUOctn0GX6wJK+/Pq1YMx8PdinIVLC6fBL4nENkR1RdZ/W+qWMLYGmL/HEUgMpWOlXhA7Uqa9qC0qns9/y+W9IfYUs2cK39OUiUn/LpGl/Sg6nfeSGcGX8Sa2z4apmihhKyUWp+U+iG0K9RrO1wiWONKazkNF0WShgQgsmVH+9vr4+uMp83U9RPZFSu5Evt1FKU2mIFPEubUq+N78hGunw37TDBCs1YjkLmWoITV8L6XQKAm0KohBNiX+Tf+wNJdSQdDiwQevBGCCX3ea3pNOqW6BWpKbCQQrkChNmC2mkzocsCJ4t13lT5lqNrtT7Z+kM5W9fLZAuvvW/JYeaUaKm1kYglJLYKaH0NbGLoY9qpJAgQlhShYzJlE+r85nCmeUsdJU3qvMHIbWxkD3IG9OXVDMlOX3/JDEjkoMpMzNNIyQ2LDTzRDfsoxopTvJYpLLGVCxwig+VTciSVDMlhrUJchAkNi8wISVZEL/F/CexZJu4WUlKT4kfiCf0LjnUzNPSxf02mk7kllPf5H+7WXRXEZKTPrkFRWtAzZL72RhKsiCG0mZuCBZ6A0SyI5KDqcZFbOYyq/9ZIerQSUwWGmIo7X9poQFeZfKpDrv4sViIZU3/W2LzYpyYEJmV4tXtetFTmr/EHDxBCzSQKvYzl7gsk9pPUmgp5I3Fl9Ie9X5xN+0M/U1yREoreJxwo6lU1BSv33N4jjgVg58l8jFSstC8fkGymgVa94XxIGMxWi7PjOpUygRFNqR4Uyabxi+N6gJouFBABePVWYFmycZ/SIVb3wvi1dKhYspn2OKDfJPJlkTIRv1+v8gxIjxZ8ZVG/Sipga95TuxHpBWlpvRX6Ul9dZAPHZgyaD/0Vb3/NbV4kN/ft4T2LdlMBmXSB5nrEAWRXJr2LRC7owalS1CMHQ/gE61saY7JEiFvszniXgfvRw6HzaaiEs4Roze95ZSVnixQqVmuU6msRZ1NF66/hTKLuAWV3QcwZDm7XFyk1aYQTEmEE8RAXyTkrIc8noGRsxWHKgLhlERo5Xl7TvTjwQxekaERkhM+LVkUdWgqFPZTRmM+fxayqKE0vbZks5eXBwXLGboCQrU69PW6QCP8L4mQkvJlQi8QWmNlwqkSoZ9TcQ6f1Wa3+20CVYdEwr4XtHRoQiloGmZToYzl23UKmhcSIWxaLGdq9deiDgtXxgJSk6tv03+Jjt8m4UaZ0OewoljMG6NbKbGfjU4Ihx7KZEPG9NezzFdTZh8TplEBivF8Vr0fAj+0oLPUQSGftVyfkVyRRkjsbyMTMhtVhKDDGM+yeLAQuSuRPDwBCMmA2E4zoRQ21Hz+ypQGW0xdqc9SFnipVkNcTaeMqTNTKpS/MmYyxGBDIySl/GKHYtEPq3QoE4IfCkU/5ONhvks6LNc08GSSkiC8wFt4p1HqejPif0aTMU9s6XegQ1ZELM87HHxFh1NyLEVhKZZG8Gih7vhhG0LO+h34oYqLe31xZGdrIw0btVqtIqeyw1O0ST5sL5beXDqIpdhOwz47qyqNUQdCuabBxQzDlWoaWj4kZnxKPuyop7vuK9rPhxiR4/AU9+UxiuS69OY1jTFFa9i2Qdh+TdNQl1IIu1CXmrIIRw+jBXflS49GvGWx4KobDxiGnRYT1D3f4KVF+mTD13RSlyokvHnbwlS4zkMzwnQWgoSgzoQKKXWmkF+8yocKgBXKpNLG1H4orQ5BVVCAfGFS5/fPGr6kK22LW2ofWkKZNDIZM5epa2TJ7xey2cXLbObqADJ8On1wlkeF9NdCCpkyB+lCNpW5VOfz6Ya0T+72brd9eEttfBPU1qigPriyXCH8WLhcvEx9y+wvXoUy+YzFki3gzlKkBiu9zlwtokJoP93QY9OdNn5b/TTEi4ekfhpTCmUPDkKLCFqB6CoL9cvlYrZgyWdD+/nCdQpajVC/7eclwuw17ExbMpeoro3RlX6a+7fU12a8PrNA2+IKqMAUoSWRkQhT1xYLuGMIFFvIZ75dIRxpQplvltBV6Oobbl/VEHanr+1W+ktBcdDyNR6kCtnQJbQBs6EsJjSpL0OhrPrqcv8aFVIHoesDcNazq2zoOmTKXOYv6/ywS/2lt9TnfYWhr67S8B+ywGPh2oS9zAQxFfdngB9aYPMqbUrjXo0C5JIChFclbth2n/etXrcwha5T0Ea63k99LV4GVku9UegstC/3RxX7qNSEHqluXLeQRmDe6rUndSqPG/Bn+epmPLSmGlIf6fR06drT7V4/VBul1ruxtg1vUtRP3Nb1w54m1w9v9RrwDaR714Bv9Tr+DaQ71/FXpSHQpHfaG4tB7VHsXLo0FmP6tsfTdC5dHE9DGxP1nGgNbY+J6lDaHRNFHupdmqbudse1dSpdHNf2fzA28d8/vvRXHCNMbNz3djpGmDbO+8m/Zpz3/8FY/X/t/Rbl2TD//ffM/Pvve6Leu0a7R/b3u3ft33n/YfWaAv/+e0h/7/uANQruA/4/uJf7974fn6LC2hUTyGVN0zkVmkxj8QvOqVA9L0aN/E7zYtTZX/1M+8SujN9rbpM6wrq5TSjN4N9rfppaI62fn4ZSm/6YOYZedmOOoTrVNE5KR7za/TvNE1UrjfNEVRYLqFfi7c/11WpCM2VzfdVJ41xftDUcGUpvhoT44ofM10YeeyEdAWVuGvLaOpQGRlfm3Fsgz7nX17U59xosjzSZ8DS5rmk+b+IfyudN7K2ZN7Gvu/Mm1gl53kRaXdNq7kvCgRI1I83gWTf3pa6lDvsVzX3ZYKTkCUxpCaP9+UvdJOjEnrseSLdbPz9yI6Ci+UvrdUKZv5SuxPbmoDW48bTHOh1WGn4s7k1u7iU3e4szsuqwYK0mErrqKVoN9TPtKpuDVqkKa6aCrlNi83mE6yKqYRPP9Ozx4Al1i49A4E4aDLrTXWmGXbwXtAdPHk9xml2Dx+0xFDerv0nhPMKNGqFOBk1uCKvamwta50G6j7uGBNrc/K6Dx+RHrLVd5MbrCOhON5OnhsRHFPyuM2zu7e0ZNpObpzo3CiK3YXNz89RTA6hsLuh6aTKhN1WJ7cznbdgLfgoG8WzXnzYTeM7rTWkWaHcSz9kN731Kut3fPxlOd3u/e4IJ9+knQ9CD8HTXno+eT+4qQqXzebehwiZKbGdO9tPvye8fDYlNgwHP120w7Ekzefcaet0f3cHvyWTSjd/b29vdNAQTe0FDr8EDmk4mde7T73tVMUbhnOztqJB2PViyU6Xz6ut2P4J7ne5ixwsmMEsQz84e3DNgnQKtzu2BvTrPx6C79IG9XYRnxfbsGjyn8tTswy3n1aeVa83n1f/PLHXRylZrI8yX1kYA7zLoDMFNN9pLIE8CJRJw+Ng5g+495PFIrwGr15BEmLsXJfa+6+DjSbDVhPt7cV7vvrtLzVxQXhtBmlOXB+FK21iar41Qvb5F/alRuL4FqAgDud2biaBHslMp5xk8e5t7HgiaQdjrwVOZ7+7q4H/Yj3fD50CtweCupEKF61sIcZFVCY54PO7nGJ+80EiL9S2q1yipN2+Fa5SU5inH5qeDyGIoTUauM1RW7JAyv5QRddVLeBQ3Fa9RwvnxKp0C8lv9h34uYlW6TCB5iJTkiu2sM6NzY4+Cx7aXYVG8zgx/6D+UlhXjeWtMvoOk9TozNWsFNSC2sVZQsZbREdYDaM6neK0gVjzEt/4IOVGwx+R7ZBStvbZKJfy11nviwg4hHOOFXCQSiatK98goWpeses0utnjXKSv75i+1ZtehzWZDgpCzSzfFSoTK1uyqWnfNDudGcERsDns7K+f9mHXXuGiOZ3ibX4WkWZ0lQoXrrlXslBGRSuWNi2IclQ31l1k7T7qLkPVHhBIhjqWKV5SV1z8EQs5n41mWt/nYthB/xPqH9tJjaa0Au9DG+odyhwYQAhuPFwGJsVVa7PIali87XMOyeDiV/N3WcrKzsg75CF5bkPPHKmsB/yLrkBKkrSWBpeY+JozjxQXx6slVp+3Ga8kudGEt2QZpby3Z4pBMIGTxoslcFNVemrrZesDz3VkPuE7aXQ9YKm0YMQcGCmnHa+Vqvu3nr+ncCNjums6lK4oCnoI+GhW4+i/82ety10sH63JXVW8sS/jKn7u2euPhdLC2Om3scPmsPXjagaV2COhqGmPKY4HbFdq1GllaWmoH3kaUFhZKuQ6jCJE8kKiixqaWqll2ueqiZTUybCs7AZoWWbBuaFB7Mt0CEdIGVY0a1zr68iVQncw1gYCmsr2+vB5QUojON00SEmDbYbQis/TmcAnR+ZjW8L841mhOkKS30j/z+bG5tG0uEVbe7CGqVDP+2NkCUOvsIIxWIZLH9FUEUuM8yVQ1J+v4oI9cPefrF4HlnZ3PFycB0On58UXP0cX68bJEaN65uDhZPj5edx3DRsPXaIbmmyZB6QBmbgSIEVtoEbxxdK7RVM3H29hAzcvnO+bAl57zzz0BtHx+vHzx2RVYd2nWTzCh6+h82YXMO19g33LPRYOBzo228EDQ4E0BFRiqimGcj12DGiKhqyfn0oCyzk/MPWh55xg24dGsOTqXCC/Oj49R4PwI8NaPapOPZtD12Mn8AEAFhopN1fmwjhGsFLvgeuALEH7BhK4qQvPRTpHw+OTkqOf8yNwzHjj/4qrja2WgXTBRGbGVFjHj2JM6xovznp6di+XP2OV6touEO5jw5KLH/CUQ+LL8xXW8s+zKmUGHJ5+Xl3Pl0Ap8T8Za83VHgxKis0XSKOnx6VwVo6bnHKFzePqMIGfsAOGFOZALbAc05mOEjs2B7eVtl3kbIYg0YMI7sE8j8809VaA/SBM3i6I1iK3yYlH0ztFH4xVIM+7LwE+Q93HqN/dITQupkSG9Zy7ukxKKuZQtNIPjj0ZbJYgS4FrXABWk/qIw+jtjj58PdVySa4aG5h6P3VGivxsm+kZpVaOWGbVYka6h9hq3RTzNkAurT6uIr/NalIq4pfCXJY8cfTI3Xp8/mop5cHzuyagi7yudya0uA4KsCq1DagXyztjDR8/HwWBbcYLqhsafP3qo1Dgl0QodtQdbSevcXwspOIFy3gWYQ6RuCw1mGxp3zQOdU2gD78alKF2mFTpj5Uj0D+44x0aBc841Pj40WJGh8XHXHLCNjjnvPNC3c+ZU2AW7GmOqZWRF1ebB4CImHeMAAAKMSURBVB7bAT0GdY6NjWJ5KD2OjTkxmn6AoV6RpYlWtdJ9F6xIe5ZaQ6qvlZYlJw3wtixUlumpTg+tK8IwU7dmobKMrAptemMXZUBYvU0LlaU9NbJMw6c7NYIfocCijKw6B5QepSCCsDWftts7QmQGnD9EgUWZnlKY/lkr8npz0kLLcr8yF8aXNkszNqsoHc6NohV+lAJLMruhSI2s1cbzKpuD51SiwAkCWKgdHnlR5FTSruJmS2EGNm45hDbKyOyagkoVCPG4kBwbPYyhaBRxvCPsC/PxiM1W3MU5YjEb+d7AKj7t2uyPM9CKTK84WzJKhCr7IZOL8qJXiIhsRAz7ojmejduLu3J23i+24HOu/FgDrWFsYatFQvHQjmKxWE4I+0QbH/b54zzDCcVdPhSzNvNECDA/jU8JIxByHO+z8Qjcz8qKXocfE8Z4zioiu12w2kU26vVTPfFn82EZWVnT00sA1nro98dzIh93iI44y9mQwIfDArJaD5kY3iWgqGijKXFAv3arNahSmV7dUFFrADHscOBpfVVhm0OawJ9lrVZOjOGBk2FbWMVFYzY/EZDRqjZWf7b+ZBmZ3QJjJUKyeHwrfofn8HrtLB7ZwcJePF+xtIsDIeCBeW79lPhJlZHVNWGgw3ZHg2gHhLUfWL8olZHZlTVBq7icowmj1QprK7+W+iqCIWcYxV1WJDz9zK+LV5SR2dUp58BAB5QM6N85tfpr45UEVDnlFNrABLgBwTn1iyuvTkCXWxvOGQgaAEojZTCaVjWztrH1e+iuXkamZ1dXpjbWZmaABSIIFvBSbWmLUc0A29TK6uz070hXJSPT0/fvr66sbG1tTU1tbGxMTcHWysrq/fvTPwLtf1Pz2XHjXeZSAAAAAElFTkSuQmCC;" parent="1" vertex="1">
          <mxGeometry x="-1820" y="120" width="225" height="225" as="geometry" />
        </mxCell>
        <mxCell id="X8rZoJl7wQgGBzUAeYB1-14" value="GeoArea" style="swimlane;fontStyle=0;childLayout=stackLayout;horizontal=1;startSize=26;fillColor=none;horizontalStack=0;resizeParent=1;resizeParentMax=0;resizeLast=0;collapsible=1;marginBottom=0;whiteSpace=wrap;html=1;" parent="1" vertex="1">
          <mxGeometry x="-1200" y="960" width="200" height="78" as="geometry" />
        </mxCell>
        <mxCell id="X8rZoJl7wQgGBzUAeYB1-15" value="- type: string" style="text;strokeColor=none;fillColor=none;align=left;verticalAlign=top;spacingLeft=4;spacingRight=4;overflow=hidden;rotatable=0;points=[[0,0.5],[1,0.5]];portConstraint=eastwest;whiteSpace=wrap;html=1;" parent="X8rZoJl7wQgGBzUAeYB1-14" vertex="1">
          <mxGeometry y="26" width="200" height="26" as="geometry" />
        </mxCell>
        <mxCell id="X8rZoJl7wQgGBzUAeYB1-20" value="- coordinates: number[]" style="text;strokeColor=none;fillColor=none;align=left;verticalAlign=top;spacingLeft=4;spacingRight=4;overflow=hidden;rotatable=0;points=[[0,0.5],[1,0.5]];portConstraint=eastwest;whiteSpace=wrap;html=1;" parent="X8rZoJl7wQgGBzUAeYB1-14" vertex="1">
          <mxGeometry y="52" width="200" height="26" as="geometry" />
        </mxCell>
      </root>
    </mxGraphModel>
  </diagram>
</mxfile>
